<svg width="319" height="60" viewBox="0 0 319 60" fill="none" xmlns="http://www.w3.org/2000/svg">
<path d="M21.6269 4.35956C21.6269 4.35956 17.7169 12.2096 11.7569 12.9796C5.79694 13.7496 0.546943 11.1196 0.0369435 7.12956C-0.473056 3.13956 4.39694 0.469565 8.48694 4.86957C14.6069 11.4796 21.6269 4.35956 21.6269 4.35956Z" fill="#F3BF43"/>
<path d="M62.366 19.2699C63.066 19.2683 63.7553 19.4417 64.3713 19.7744C64.9872 20.1071 65.5102 20.5884 65.8928 21.1746C66.2754 21.7609 66.5053 22.4335 66.5618 23.1312C66.6182 23.829 66.4993 24.5297 66.216 25.1699C63.5671 30.987 59.3004 35.9193 53.9251 39.3779C48.5498 42.8366 42.2929 44.6756 35.901 44.6756C29.5091 44.6756 23.2522 42.8366 17.8769 39.3779C12.5016 35.9193 8.23491 30.987 5.586 25.1699C5.303 24.5305 5.18408 23.8306 5.24004 23.1337C5.296 22.4368 5.52507 21.7648 5.90647 21.1788C6.28786 20.5928 6.80952 20.1113 7.42412 19.778C8.03872 19.4446 8.72681 19.27 9.426 19.2699C10.2262 19.2595 11.0121 19.4829 11.6871 19.9128C12.3621 20.3427 12.897 20.9603 13.226 21.6899C15.1819 26.0674 18.3635 29.7851 22.3863 32.3938C26.4092 35.0025 31.1013 36.3907 35.896 36.3907C40.6907 36.3907 45.3828 35.0025 49.4057 32.3938C53.4285 29.7851 56.6101 26.0674 58.566 21.6899C58.895 20.9603 59.4298 20.3427 60.1049 19.9128C60.7799 19.4829 61.5658 19.2595 62.366 19.2699Z" fill="#F3BF43"/>
<path d="M69.5162 7.84868C69.5181 9.27708 69.0964 10.674 68.3042 11.8626C67.5121 13.0512 66.3852 13.9782 65.0661 14.5262C63.747 15.0742 62.295 15.2186 60.8938 14.9412C59.4926 14.6637 58.2051 13.9769 57.1944 12.9675C56.1837 11.9582 55.495 10.6717 55.2156 9.2709C54.9362 7.87009 55.0786 6.41789 55.6248 5.09802C56.171 3.77816 57.0964 2.64996 58.2839 1.85617C59.4714 1.06238 60.8678 0.638673 62.2962 0.638672C64.2093 0.63867 66.0442 1.39798 67.3979 2.74983C68.7517 4.10168 69.5135 5.93555 69.5162 7.84868Z" fill="#F3BF43"/>
<path d="M74.9474 42.779C74.181 42.3428 73.4607 41.8302 72.7974 41.249C72.3352 40.8492 71.9791 40.3411 71.7611 39.7701C71.5431 39.1991 71.47 38.583 71.5482 37.9768C71.6265 37.3706 71.8537 36.7933 72.2095 36.2963C72.5654 35.7994 73.0388 35.3984 73.5875 35.129C74.274 34.7876 75.0517 34.6742 75.8071 34.8055C76.5626 34.9368 77.2564 35.3059 77.7875 35.859C78.2788 36.3871 78.8408 36.8448 79.4575 37.219C80.8341 38.0308 82.4097 38.4428 84.0075 38.409C85.4558 38.5175 86.8962 38.114 88.0774 37.269C88.4956 36.9507 88.8354 36.5411 89.0711 36.0715C89.3068 35.6018 89.4321 35.0845 89.4374 34.559C89.4458 34.2917 89.3935 34.0259 89.2843 33.7817C89.1752 33.5375 89.0122 33.3212 88.8074 33.149C88.3244 32.7439 87.7768 32.4228 87.1874 32.199C86.4233 31.9004 85.6333 31.6728 84.8274 31.519C83.9174 31.339 82.9775 31.139 82.0075 30.929C80.6275 30.639 79.2775 30.289 77.9575 29.929C76.696 29.5657 75.4985 29.0091 74.4075 28.279C73.3626 27.5811 72.4905 26.6544 71.8574 25.569C71.1577 24.3005 70.8122 22.8671 70.8574 21.419C70.8586 20.1444 71.1673 18.8888 71.7575 17.759C72.3748 16.5574 73.2326 15.4954 74.2774 14.639C75.4461 13.6867 76.7824 12.9609 78.2174 12.499C79.8681 11.952 81.5987 11.685 83.3375 11.709C86.0937 11.6133 88.8292 12.2189 91.2875 13.469C91.9047 13.8124 92.4963 14.2001 93.0574 14.629C93.4928 14.9814 93.8326 15.4376 94.0456 15.9556C94.2585 16.4736 94.3377 17.0369 94.276 17.5936C94.2143 18.1503 94.0135 18.6825 93.6922 19.1413C93.371 19.6001 92.9395 19.9707 92.4374 20.219C91.8366 20.5238 91.1575 20.6391 90.4898 20.5499C89.8221 20.4606 89.1971 20.1709 88.6974 19.719C88.2882 19.3382 87.839 19.0029 87.3574 18.719C86.1329 18.0458 84.7548 17.7013 83.3574 17.719C81.9977 17.6049 80.6397 17.9576 79.5075 18.719C79.1304 18.9954 78.8216 19.3546 78.6049 19.7689C78.3882 20.1832 78.2694 20.6416 78.2575 21.109C78.2696 21.637 78.4585 22.1456 78.7939 22.5535C79.1293 22.9614 79.5918 23.2451 80.1074 23.359C81.8792 23.9619 83.6901 24.443 85.5274 24.799C86.858 25.0605 88.1733 25.3944 89.4674 25.799C90.7385 26.1967 91.9495 26.7652 93.0675 27.489C94.1428 28.1757 95.0433 29.1036 95.6974 30.199C96.4077 31.4634 96.7539 32.8999 96.6974 34.349C96.6764 35.5543 96.4181 36.7436 95.9374 37.849C95.3855 39.1168 94.5827 40.2597 93.5774 41.209C92.4179 42.2976 91.0599 43.1531 89.5774 43.729C87.705 44.4304 85.7165 44.7697 83.7174 44.729C80.6741 44.8547 77.6508 44.1825 74.9474 42.779Z" fill="white"/>
<path d="M107.177 3.96923V16.1692C108.249 14.7989 109.616 13.688 111.177 12.9192C112.875 12.0986 114.741 11.6876 116.627 11.7192C120.567 11.7192 123.65 12.9126 125.877 15.2992C128.103 17.6859 129.213 21.0192 129.207 25.2992V36.6392C129.208 37.6224 129.015 38.5961 128.64 39.5048C128.265 40.4135 127.714 41.2392 127.019 41.9349C126.325 42.6305 125.5 43.1824 124.591 43.5589C123.683 43.9354 122.71 44.1292 121.727 44.1292V26.1292C121.847 24.0158 121.213 21.9284 119.937 20.2392C119.264 19.4973 118.43 18.9188 117.499 18.5479C116.569 18.1771 115.566 18.0236 114.567 18.0992C113.578 18.095 112.599 18.2888 111.687 18.6692C110.791 19.0447 109.987 19.6073 109.327 20.3192C108.625 21.1109 108.091 22.0361 107.757 23.0392C107.36 24.2249 107.167 25.4692 107.187 26.7192V36.7192C107.187 38.6765 106.409 40.5537 105.025 41.9377C103.641 43.3217 101.764 44.0992 99.8066 44.0992V11.2692C99.8066 10.3071 99.9963 9.35443 100.365 8.46567C100.733 7.57692 101.273 6.76952 101.954 6.08967C102.635 5.40981 103.443 4.87084 104.332 4.50356C105.222 4.13629 106.175 3.94791 107.137 3.94923L107.177 3.96923Z" fill="white"/>
<path d="M142.408 43.4795C140.447 42.6618 138.666 41.4656 137.168 39.9595C135.678 38.444 134.49 36.6589 133.668 34.6994C131.97 30.5635 131.97 25.9254 133.668 21.7895C134.488 19.8256 135.676 18.0368 137.168 16.5195C139.496 14.2152 142.455 12.6514 145.67 12.025C148.886 11.3987 152.215 11.7377 155.238 12.9995C158.232 14.2672 160.786 16.3886 162.581 19.0989C164.377 21.8092 165.334 24.9883 165.334 28.2395C165.334 31.4906 164.377 34.6697 162.581 37.38C160.786 40.0903 158.232 42.2118 155.238 43.4795C153.214 44.3372 151.036 44.7728 148.838 44.7595C146.63 44.7719 144.442 44.3364 142.408 43.4795ZM152.518 37.1095C153.618 36.6178 154.613 35.9183 155.448 35.0495C156.29 34.1617 156.952 33.1192 157.398 31.9795C157.871 30.8 158.112 29.5403 158.108 28.2695C158.117 26.9787 157.875 25.6985 157.398 24.4995C156.952 23.3597 156.29 22.3172 155.448 21.4295C154.613 20.5606 153.618 19.8611 152.518 19.3695C151.375 18.8614 150.138 18.6023 148.888 18.6095C147.655 18.603 146.433 18.85 145.3 19.3351C144.166 19.8202 143.144 20.5331 142.298 21.4295C141.465 22.3207 140.81 23.3627 140.368 24.4995C139.893 25.6992 139.656 26.9794 139.668 28.2695C139.66 29.5396 139.898 30.7994 140.368 31.9795C140.81 33.1162 141.465 34.1582 142.298 35.0495C143.125 35.9272 144.122 36.6279 145.228 37.1095C146.379 37.6214 147.627 37.8805 148.888 37.8695C150.138 37.8816 151.377 37.6223 152.518 37.1095Z" fill="white"/>
<path d="M180.137 43.6196C178.419 42.9212 176.905 41.7998 175.737 40.3595V51.4296C175.737 53.3559 174.972 55.2036 173.611 56.5667C172.25 57.9298 170.403 58.6969 168.477 58.6995V19.6395C168.477 17.7132 169.241 15.8655 170.602 14.5024C171.964 13.1393 173.81 12.3722 175.737 12.3696V16.5996C176.898 15.093 178.394 13.8775 180.107 13.0496C181.957 12.1523 183.99 11.697 186.047 11.7195C188.037 11.7176 190.009 12.0978 191.857 12.8396C193.722 13.5665 195.423 14.6616 196.857 16.0595C198.347 17.5413 199.533 19.3012 200.347 21.2396C201.266 23.4569 201.718 25.8397 201.677 28.2396C201.722 30.6417 201.262 33.0265 200.327 35.2396C199.489 37.1791 198.283 38.9382 196.777 40.4195C195.335 41.8101 193.637 42.9072 191.777 43.6496C188.045 45.1497 183.878 45.1497 180.147 43.6496L180.137 43.6196ZM188.647 37.2696C190.966 36.2685 192.793 34.3873 193.727 32.0396C194.219 30.8057 194.467 29.4879 194.457 28.1596C194.47 26.8406 194.221 25.5322 193.727 24.3095C193.276 23.1547 192.596 22.1034 191.727 21.2195C190.864 20.3493 189.846 19.6473 188.727 19.1496C187.545 18.6436 186.272 18.3882 184.987 18.3996C183.685 18.3853 182.395 18.6407 181.197 19.1496C180.065 19.6361 179.045 20.3471 178.197 21.2396C177.355 22.1471 176.694 23.2058 176.247 24.3595C175.772 25.5701 175.531 26.8594 175.537 28.1596C175.528 29.4762 175.769 30.7827 176.247 32.0096C176.698 33.1701 177.359 34.2378 178.197 35.1596C179.036 36.0674 180.058 36.7866 181.197 37.2696C182.392 37.7867 183.684 38.0457 184.987 38.0295C186.246 38.0313 187.492 37.7726 188.647 37.2696Z" fill="white"/>
<path d="M216.377 43.6196C214.656 42.9258 213.142 41.8036 211.977 40.3595V51.4296C211.977 53.3577 211.211 55.2068 209.848 56.5702C208.484 57.9336 206.635 58.6995 204.707 58.6995V19.6395C204.71 17.7122 205.476 15.8646 206.839 14.5018C208.202 13.139 210.05 12.3722 211.977 12.3696V16.5996C213.136 15.0906 214.633 13.8747 216.347 13.0496C218.197 12.1523 220.231 11.697 222.287 11.7195C224.274 11.7176 226.243 12.0979 228.087 12.8396C229.954 13.564 231.655 14.6594 233.087 16.0595C234.584 17.5383 235.774 19.2988 236.587 21.2396C237.506 23.4569 237.959 25.8397 237.917 28.2396C237.962 30.6417 237.502 33.0265 236.567 35.2396C235.729 37.1816 234.52 38.9412 233.007 40.4195C231.566 41.8109 229.868 42.9081 228.007 43.6496C224.275 45.1497 220.109 45.1497 216.377 43.6496V43.6196ZM224.887 37.2696C226.014 36.7753 227.033 36.0653 227.887 35.1796C228.759 34.2786 229.439 33.2104 229.887 32.0396C230.382 30.8063 230.634 29.4886 230.627 28.1596C230.637 26.84 230.385 25.5315 229.887 24.3095C229.44 23.1528 228.759 22.1008 227.887 21.2195C227.024 20.3493 226.007 19.6473 224.887 19.1496C223.705 18.6444 222.432 18.389 221.147 18.3996C219.842 18.3854 218.549 18.6407 217.347 19.1496C216.215 19.6351 215.195 20.3462 214.347 21.2396C213.488 22.1429 212.809 23.2018 212.347 24.3595C211.873 25.5701 211.632 26.8594 211.637 28.1596C211.628 29.4762 211.869 30.7827 212.347 32.0096C212.814 33.1739 213.492 34.2419 214.347 35.1596C215.186 36.0683 216.208 36.7877 217.347 37.2696C218.546 37.7866 219.841 38.0456 221.147 38.0295C222.433 38.0416 223.708 37.7827 224.887 37.2696Z" fill="white"/>
<path d="M241.277 1.26984C242.211 0.45129 243.41 0 244.652 0C245.894 0 247.093 0.45129 248.027 1.26984C248.44 1.719 248.76 2.24521 248.97 2.81833C249.179 3.39145 249.273 4.00024 249.247 4.60983C249.194 5.51181 248.888 6.3806 248.364 7.11668C247.84 7.85276 247.119 8.42637 246.284 8.7718C245.45 9.11724 244.534 9.22053 243.643 9.06985C242.752 8.91918 241.922 8.52062 241.247 7.91983C240.431 7.016 240.003 5.82675 240.057 4.60983C240.025 3.9996 240.116 3.38912 240.326 2.81512C240.535 2.24113 240.859 1.71549 241.277 1.26984ZM248.327 19.7398V44.0998C246.37 44.0998 244.493 43.3223 243.109 41.9383C241.725 40.5543 240.947 38.6771 240.947 36.7198V12.3698C242.904 12.3725 244.779 13.1509 246.163 14.5343C247.546 15.9178 248.325 17.7933 248.327 19.7498V19.7398Z" fill="#F3BF43"/>
<path d="M259.827 12.3696V16.2696C260.939 14.8179 262.378 13.6486 264.027 12.8564C265.676 12.0642 267.488 11.6713 269.317 11.7096C273.257 11.7096 276.34 12.9029 278.567 15.2896C280.793 17.6763 281.907 21.0096 281.907 25.2896V36.6896C281.904 38.6611 281.119 40.5509 279.724 41.944C278.329 43.3371 276.438 44.1196 274.467 44.1196V26.0396C274.586 23.9448 273.951 21.8766 272.677 20.2096C272.004 19.4676 271.17 18.8892 270.239 18.5183C269.309 18.1474 268.306 17.994 267.307 18.0696C266.32 18.0475 265.34 18.2317 264.429 18.6106C263.518 18.9894 262.696 19.5545 262.017 20.2696C260.493 22.0404 259.724 24.3383 259.877 26.6696V36.7596C259.877 38.7019 259.106 40.5648 257.733 41.9391C256.361 43.3135 254.499 44.0869 252.557 44.0896V19.6396C252.557 17.7115 253.323 15.8623 254.686 14.4989C256.049 13.1355 257.899 12.3696 259.827 12.3696Z" fill="white"/>
<path d="M306.638 43.4594C304.791 44.331 302.771 44.7754 300.728 44.7594C298.784 44.7548 296.86 44.378 295.058 43.6494C293.203 42.8977 291.506 41.8017 290.058 40.4193C288.536 38.9446 287.319 37.1844 286.478 35.2394C285.543 33.0263 285.083 30.6415 285.128 28.2394C285.086 25.8395 285.539 23.4567 286.458 21.2394C287.275 19.2955 288.471 17.5344 289.978 16.0593C291.431 14.6611 293.147 13.5664 295.028 12.8394C296.883 12.0994 298.861 11.7193 300.858 11.7194C302.863 11.7002 304.847 12.1379 306.658 12.9994C308.365 13.8004 309.869 14.9763 311.058 16.4394V12.3694C313 12.372 314.862 13.1454 316.235 14.5198C317.607 15.8942 318.378 17.757 318.378 19.6993V43.2694C318.397 45.4152 318.038 47.5477 317.318 49.5694C316.64 51.5077 315.553 53.2777 314.131 54.7597C312.71 56.2417 310.986 57.4011 309.078 58.1594C306.826 59.0488 304.419 59.4838 301.998 59.4394C300.103 59.4585 298.214 59.2299 296.378 58.7594C294.786 58.3431 293.261 57.7034 291.848 56.8594C290.546 56.0729 289.361 55.1068 288.328 53.9894L288.248 53.9094C287.888 53.4968 287.623 53.0102 287.472 52.484C287.32 51.9577 287.286 51.4047 287.372 50.8639C287.458 50.3231 287.661 49.8077 287.968 49.3542C288.275 48.9007 288.678 48.5201 289.148 48.2394C289.923 47.7681 290.842 47.5935 291.736 47.748C292.629 47.9024 293.436 48.3754 294.008 49.0794C294.623 49.858 295.339 50.5508 296.138 51.1394C297.921 52.2853 300.022 52.8351 302.138 52.7094C303.425 52.7285 304.701 52.4692 305.878 51.9493C306.952 51.4799 307.921 50.7998 308.728 49.9493C309.817 48.7499 310.569 47.2836 310.908 45.6993C311.065 44.9597 311.142 44.2054 311.138 43.4493V39.8594C309.948 41.4023 308.405 42.6369 306.638 43.4594ZM305.718 37.2694C306.857 36.7875 307.88 36.0681 308.718 35.1594C309.565 34.2354 310.242 33.169 310.718 32.0094C311.216 30.7874 311.468 29.4789 311.458 28.1594C311.463 26.8564 311.212 25.5652 310.718 24.3594C310.246 23.2065 309.569 22.1492 308.718 21.2394C307.87 20.3461 306.85 19.6349 305.718 19.1494C303.294 18.1498 300.572 18.1498 298.148 19.1494C297.006 19.64 295.968 20.3423 295.088 21.2194C294.219 22.1032 293.539 23.1545 293.088 24.3093C292.598 25.5334 292.35 26.8409 292.358 28.1594C292.353 29.4873 292.601 30.8041 293.088 32.0394C293.55 33.2051 294.239 34.2676 295.114 35.1653C295.989 36.0631 297.034 36.7782 298.188 37.2694C299.387 37.7708 300.673 38.029 301.973 38.029C303.273 38.029 304.559 37.7708 305.758 37.2694H305.718Z" fill="white"/>
</svg>
